<svg xmlns="http://www.w3.org/2000/svg" xmlns:xlink="http://www.w3.org/1999/xlink" width="500" zoomAndPan="magnify" viewBox="0 0 375 374.999991" height="500" preserveAspectRatio="xMidYMid meet" version="1.0"><rect x="-37.5" width="450" fill="#ffffff" y="-37.499999" height="449.999989" fill-opacity="1"/><rect x="-37.5" width="450" fill="#000000" y="-37.499999" height="449.999989" fill-opacity="1"/><path fill="#ff822d" d="M 198.558594 111.410156 L 140.203125 194.808594 C 138.644531 197.03125 139.933594 199.574219 142.574219 199.574219 L 166.574219 199.574219 C 168.675781 199.574219 169.574219 200.414062 169.574219 202.574219 L 169.574219 267.152344 C 169.574219 271.414062 174.734375 273.273438 177.195312 269.851562 L 234.902344 192.882812 C 236.523438 190.664062 235.214844 187.574219 232.574219 187.574219 L 211.574219 187.574219 C 208.574219 187.574219 205.574219 184.574219 205.574219 181.574219 L 205.574219 112.574219 C 205.574219 109.574219 201.015625 107.929688 198.558594 111.410156 " fill-opacity="1" fill-rule="nonzero"/></svg>